<?xml version="1.0"?>
<svg xmlns="http://www.w3.org/2000/svg" id="Icons" viewBox="0 0 74 74" width="512" height="512"><path d="M71,72H3a1,1,0,0,1-1-1V67.061A3.064,3.064,0,0,1,5.061,64H68.939A3.064,3.064,0,0,1,72,67.061V71A1,1,0,0,1,71,72ZM4,70H70V67.061A1.062,1.062,0,0,0,68.939,66H5.061A1.062,1.062,0,0,0,4,67.061Z" fill="white"/><path d="M65.849,66H8.151a1,1,0,0,1-1-1V53.485a1,1,0,0,1,2,0V64h55.7V51.364a1,1,0,0,1,2,0V65A1,1,0,0,1,65.849,66Z" fill="white"/><path d="M45.778,55.515a5.653,5.653,0,0,1-5.657-5.636v-.87a3.979,3.979,0,0,0-1.208-2.832,3.465,3.465,0,0,0-2.533-1.024,3.646,3.646,0,0,0-3.531,3.635,5.636,5.636,0,0,1-11.272,0,3.576,3.576,0,0,0-1.063-2.565,3.707,3.707,0,0,0-5.139-.009A3.587,3.587,0,0,0,14.3,48.788a5.636,5.636,0,1,1-11.272.061V35.909a7.19,7.19,0,0,1,7.182-7.182H63.788a7.19,7.19,0,0,1,7.182,7.182v10.3a6.151,6.151,0,1,1-12.3,0v-.055a3.472,3.472,0,0,0-1.076-2.5,2.95,2.95,0,0,0-2.2-.851,3.155,3.155,0,0,0-2.063.914,3.1,3.1,0,0,0-.908,2.2v2.945A6.654,6.654,0,0,1,45.778,55.515Zm-9.3-12.364a5.479,5.479,0,0,1,3.833,1.592,5.989,5.989,0,0,1,1.813,4.266v.87a3.651,3.651,0,0,0,3.657,3.636,4.651,4.651,0,0,0,4.646-4.646V45.924a5.088,5.088,0,0,1,1.5-3.623A5.156,5.156,0,0,1,55.3,40.809a4.944,4.944,0,0,1,3.671,1.4,5.478,5.478,0,0,1,1.7,3.946v.055a4.151,4.151,0,1,0,8.3,0v-10.3a5.188,5.188,0,0,0-5.182-5.182H10.212A5.188,5.188,0,0,0,5.03,35.909V48.849a3.636,3.636,0,1,0,7.272,0,5.637,5.637,0,1,1,11.273-.061,3.574,3.574,0,0,0,1.063,2.565,3.707,3.707,0,0,0,5.138.009,3.585,3.585,0,0,0,1.072-2.574,5.645,5.645,0,0,1,5.475-5.634Z" fill="white"/><path d="M41,30.727H33a1,1,0,0,1-1-1V16a2,2,0,0,1,2-2h6a2,2,0,0,1,2,2V29.727A1,1,0,0,1,41,30.727Zm-7-2h6V16H34Z" fill="white"/><path d="M37,13a4,4,0,0,1-4-4c0-1.874,2.646-5.8,3.177-6.568a1.038,1.038,0,0,1,1.646,0C38.354,3.2,41,7.126,41,9A4,4,0,0,1,37,13Zm0-8.179C35.934,6.526,35,8.338,35,9a2,2,0,0,0,4,0C39,8.337,38.067,6.525,37,4.821Z" fill="white"/><path d="M37,16a1,1,0,0,1-1-1V12a1,1,0,0,1,2,0v3A1,1,0,0,1,37,16Z" fill="white"/><path d="M55.992,30.5a1,1,0,0,1-.625-.219c-.6-.478-5.825-4.769-5.867-8.4a4.45,4.45,0,0,1,1.263-3.167,4.056,4.056,0,0,1,5.229-.421,4.169,4.169,0,0,1,5.464.605,3.941,3.941,0,0,1,1.023,3.073h0c-.407,3.962-5.645,8.138-5.868,8.313A1,1,0,0,1,55.992,30.5Zm-2.367-11a2.022,2.022,0,0,0-1.44.62,2.441,2.441,0,0,0-.685,1.738c.021,1.823,2.553,4.641,4.493,6.337,1.574-1.383,4.266-4.175,4.5-6.428h0a1.962,1.962,0,0,0-.518-1.529,2.119,2.119,0,0,0-3.2.06,1.036,1.036,0,0,1-1.564,0A2.01,2.01,0,0,0,53.625,19.5Z" fill="white"/><path d="M18.008,30.5a1,1,0,0,1-.619-.215c-.224-.176-5.461-4.352-5.868-8.313A3.941,3.941,0,0,1,12.544,18.9a4.169,4.169,0,0,1,5.464-.605,4.059,4.059,0,0,1,5.229.421A4.45,4.45,0,0,1,24.5,21.881c-.042,3.631-5.271,7.922-5.867,8.4A1,1,0,0,1,18.008,30.5Zm-2.367-11a2.216,2.216,0,0,0-1.612.739,1.962,1.962,0,0,0-.518,1.529h0c.23,2.252,2.922,5.044,4.5,6.428,1.94-1.7,4.472-4.514,4.493-6.337a2.441,2.441,0,0,0-.685-1.738,2.02,2.02,0,0,0-3.025.179,1.036,1.036,0,0,1-1.564,0A2.036,2.036,0,0,0,15.641,19.5Z" fill="white"/></svg>
