<svg id="Layer_1" enable-background="new 0 0 512.002 512.002" height="512" viewBox="0 0 512.002 512.002" width="512" xmlns="http://www.w3.org/2000/svg" fill="white"><g><path d="m510.293 402.959c-4.142-5.032-8.678-9.813-13.524-14.274 11.68-25.117 16.62-52.551 14.284-79.966-.196-2.306-1.445-4.392-3.386-5.652-18.786-12.207-39.82-20.764-61.93-25.328 20.475-21.698 35.744-45.246 44.472-68.769 1.775-4.785 1.103-10.161-1.798-14.381-2.898-4.217-7.673-6.768-12.77-6.824-15.512-.174-31.795 1.96-48.647 6.335 13.446-32.414 20.423-65.117 19.772-94.759-.11-5.044-2.662-9.764-6.826-12.625-4.179-2.872-9.523-3.564-14.296-1.852-20.791 7.46-41.604 19.374-61.861 35.409-3.247 2.571-3.796 7.288-1.226 10.535 2.57 3.248 7.286 3.798 10.536 1.226 18.977-15.022 38.362-26.142 57.617-33.052.097-.035.393-.139.733.096.317.218.324.49.326.593.992 45.158-17.156 98.281-49.792 145.75-9.158 13.321-19.238 25.857-29.969 37.31-10.683 3.444-21.059 7.854-30.973 13.248-10.361 5.638-20.01 12.232-28.867 19.654l16.617-23.739c8.088-11.556 12.674-25.112 13.261-39.204l3.003-72.079c8.178-10.38 16.93-20.179 26.056-29.14 2.956-2.902 3-7.65.098-10.606s-7.65-2.999-10.605-.097c-4.958 4.867-9.808 9.969-14.525 15.263l2.233-53.606c.855-20.539-6.99-40.657-21.526-55.193l-42.842-42.845c-4.482-4.482-11.776-4.482-16.259 0l-42.842 42.843c-14.536 14.536-22.382 34.653-21.527 55.193l2.233 53.58c-30.025-33.739-64.807-58.691-99.623-71.167-4.74-1.698-10.055-1.004-14.214 1.856-4.17 2.867-6.725 7.593-6.836 12.642-.652 29.644 6.325 62.35 19.772 94.766-16.867-4.376-33.175-6.511-48.647-6.336-5.098.056-9.872 2.607-12.771 6.824-2.901 4.22-3.574 9.597-1.798 14.381 8.727 23.522 23.995 47.069 44.469 68.767-22.115 4.564-43.154 13.121-61.943 25.331-1.94 1.261-3.189 3.347-3.386 5.652-2.342 27.506 2.64 55.029 14.402 80.213-4.745 4.39-9.191 9.089-13.255 14.028-1.471 1.787-2.034 4.152-1.527 6.41 5.446 24.248 17.923 46.298 36.083 63.769 18.597 17.892 42.289 30.049 68.515 35.159 9.224 1.797 18.529 2.681 27.804 2.68 29.785-.002 59.19-9.123 84.064-26.386l10.447 10.446c7.669 7.67 17.867 11.894 28.714 11.894 10.846 0 21.044-4.224 28.714-11.894l10.603-10.603c24.926 17.367 54.425 26.543 84.304 26.542 9.268 0 18.578-.883 27.794-2.679 26.225-5.109 49.917-17.267 68.515-35.159 18.159-17.471 30.636-39.521 36.081-63.769.503-2.259-.06-4.624-1.531-6.411zm-115.953-149.043c9.333-13.575 17.53-27.618 24.514-41.839 19.643-6.287 39.137-9.513 56.622-9.315.089.001.356.004.575.323.224.324.128.582.097.666-9.033 24.346-25.843 48.886-48.671 71.162-3.54-.369-7.095-.656-10.668-.822-13.283-.618-26.502.224-39.444 2.427 5.926-7.247 11.606-14.794 16.975-22.602zm-173.8-58.362-18.795-11.003-2.336-56.065 48.9-12.619v191.837c-4.575.858-8.879 2.485-12.778 4.742l-20.41-29.158c-6.443-9.204-10.096-20.002-10.563-31.227l-1.08-25.916 17.282-10.636c3.514-2.162 5.584-5.915 5.539-10.04-.046-4.124-2.199-7.831-5.759-9.915zm35.269 126.445c14.121 0 25.608 11.488 25.608 25.608s-11.487 25.607-25.608 25.607c-14.12 0-25.607-11.487-25.607-25.607s11.487-25.608 25.607-25.608zm51.252-69.936c-.468 11.224-4.12 22.022-10.564 31.226l-20.41 29.158c-3.899-2.257-8.203-3.884-12.777-4.742v-191.837l48.9 12.619zm-91.618-194.227 40.365-40.366 40.365 40.366c11.579 11.578 17.828 27.602 17.147 43.962l-.473 11.361-49.538-12.784v-43.85c0-4.142-3.358-7.5-7.5-7.5s-7.5 3.358-7.5 7.5v43.851l-49.539 12.784-.473-11.361c-.682-16.361 5.568-32.385 17.146-43.963zm-135.578 41.827c.003-.095.009-.385.339-.612.314-.217.562-.129.656-.095 37.274 13.357 74.736 42.307 105.707 81.626l.268 6.427c.166 3.976 2.315 7.55 5.749 9.56l15.547 9.101-14.191 8.733c-3.585 2.206-5.705 6.189-5.53 10.397l1.162 27.886c.587 14.092 5.173 27.648 13.262 39.204l16.618 23.74c-8.859-7.422-18.508-14.017-28.869-19.655-9.905-5.389-20.272-9.796-30.946-13.238-10.735-11.456-20.819-23.995-29.98-37.32-32.638-47.469-50.786-100.595-49.792-145.754zm-44.377 104.088c-.031-.084-.127-.342.096-.666.219-.319.487-.322.575-.323 17.475-.184 36.979 3.029 56.622 9.315 6.984 14.22 15.181 28.264 24.514 41.839 5.37 7.811 11.052 15.359 16.981 22.608-12.95-2.206-26.176-3.049-39.466-2.433-3.568.166-7.118.452-10.653.82-22.828-22.275-39.637-46.815-48.669-71.16zm72.161 289.822c-45.22-8.809-80.931-41.545-91.961-83.906 2.083-2.383 4.266-4.696 6.536-6.932 15.374 26.067 37.903 47.66 65.467 62.657 28.225 15.357 59.746 22.826 91.559 22.044-22.691 8.572-47.484 10.835-71.601 6.137zm166.267-9.142c-3.013 3.013-6.644 5.181-10.606 6.389v-43.89c0-4.142-3.358-7.5-7.5-7.5s-7.5 3.358-7.5 7.5v43.89c-3.963-1.208-7.595-3.377-10.607-6.39l-14.951-14.95c-1.857-1.857-4.548-2.607-7.101-1.978-41.117 10.152-84.014 4.723-120.789-15.286-51.97-28.276-82.911-82.35-79.615-138.551 50.334-31.073 115.92-32.94 168.166-4.514 12.593 6.852 24.047 15.216 34.131 24.882-1.511 4.247-2.341 8.814-2.341 13.574 0 22.391 18.216 40.607 40.607 40.607s40.608-18.216 40.608-40.607c0-4.759-.83-9.327-2.341-13.574 10.083-9.665 21.536-18.029 34.13-24.881 52.242-28.426 117.831-26.56 168.166 4.514 3.296 56.201-27.645 110.274-79.614 138.551-36.775 20.008-79.672 25.435-120.79 15.286-2.55-.629-5.243.121-7.102 1.978zm130.439 9.142c-24.094 4.695-48.875 2.436-71.561-6.125 31.668.705 63.035-6.769 91.132-22.056 27.649-15.043 50.228-36.724 65.604-62.898 2.358 2.311 4.627 4.703 6.785 7.173-11.029 42.361-46.74 75.097-91.96 83.906z"/><path d="m215.172 387.196c-10.792-19.809-27.502-36.268-48.326-47.598-1.875-1.02-3.805-2.009-5.738-2.94-3.731-1.797-8.214-.228-10.011 3.504-1.796 3.733-.228 8.214 3.505 10.011 1.71.823 3.419 1.698 5.075 2.6 18.281 9.946 32.916 24.331 42.323 41.598 3.852 7.071 6.795 14.55 8.748 22.228.091.361-.144.762-.514.875-11.525 3.543-23.426 5.34-35.371 5.34-19.711 0-39.168-4.918-56.268-14.221-18.281-9.946-32.915-24.331-42.323-41.597-3.853-7.072-6.796-14.551-8.748-22.229-.092-.361.143-.762.513-.875 11.526-3.543 23.427-5.34 35.372-5.34 8.191 0 16.412.854 24.434 2.54 4.055.854 8.03-1.744 8.882-5.798s-1.744-8.03-5.798-8.882c-9.034-1.898-18.293-2.86-27.518-2.86-13.44 0-26.824 2.02-39.78 6.002-8.036 2.471-12.711 10.777-10.643 18.91 2.26 8.888 5.662 17.538 10.113 25.707 10.792 19.809 27.502 36.268 48.326 47.597 19.293 10.497 41.229 16.045 63.437 16.045 13.44 0 26.824-2.02 39.779-6.002 8.036-2.471 12.711-10.776 10.643-18.91-2.259-8.887-5.662-17.536-10.112-25.705z"/><path d="m296.976 431.813c12.954 3.983 26.338 6.002 39.779 6.002 22.207 0 44.144-5.548 63.438-16.045 20.822-11.33 37.533-27.788 48.325-47.597 4.45-8.17 7.853-16.819 10.113-25.708 2.068-8.133-2.606-16.439-10.643-18.91-12.951-3.983-26.332-6.001-39.774-6.001-22.214.001-44.151 5.549-63.441 16.045-20.823 11.329-37.535 27.788-48.327 47.598-4.451 8.17-7.854 16.819-10.113 25.708-2.068 8.133 2.607 16.438 10.643 18.908zm3.893-15.213c1.952-7.677 4.896-15.155 8.748-22.228 9.407-17.268 24.043-31.652 42.323-41.598 17.099-9.303 36.558-14.22 56.278-14.221 11.942 0 23.839 1.796 35.361 5.339.37.114.605.515.514.876-1.952 7.678-4.896 15.157-8.748 22.229v-.001c-9.407 17.267-24.043 31.651-42.322 41.598-17.101 9.304-36.559 14.221-56.269 14.221-11.945 0-23.847-1.796-35.371-5.34-.37-.113-.606-.515-.514-.875z" fill="white"/></g></svg>